<?xml version="1.0" encoding="utf-8"?>
<svg version="1.1" id="Capa_1" x="0px" y="0px" viewBox="0 0 511 511" style="enable-background:new 0 0 511 511;" xmlns="http://www.w3.org/2000/svg">
  <g>
    <path d="M 455.5 40 L 55.5 40 C 24.897 40 0 64.897 0 95.5 L 0 415.5 C 0 446.103 24.897 471 55.5 471 L 455.5 471 C 486.103 471 511 446.103 511 415.5 L 511 95.5 C 511 64.897 486.103 40 455.5 40 Z M 505.355 418.423 C 505.355 440.755 478.417 464.185 456.085 464.185 L 55.5 463.601 C 33.168 463.601 6.23 442.509 6.23 420.177 L 6.23 90.822 C 6.23 68.49 31.414 46.23 53.746 46.23 L 456.669 46.814 C 479.001 46.814 504.77 69.076 504.77 91.408 L 505.355 418.423 Z"/>
    <path d="M 470.319 128.74 L 38.925 127.601 C 34.778 127.601 33.169 128.226 33.169 131.885 C 33.169 135.544 34.778 135 38.925 135 L 471.49 135 C 475.638 135 476.077 134.959 476.077 131.3 C 476.077 127.641 474.467 128.74 470.319 128.74 Z" style=""/>
    <path d="M55.5,95c1.97,0,3.91-0.8,5.3-2.2c1.4-1.39,2.2-3.32,2.2-5.3c0-1.971-0.8-3.91-2.2-5.3c-1.39-1.4-3.33-2.2-5.3-2.2 c-1.98,0-3.91,0.8-5.3,2.2c-1.4,1.39-2.2,3.329-2.2,5.3c0,1.979,0.8,3.91,2.2,5.3C51.59,94.2,53.52,95,55.5,95z"/>
    <path d="M119.5,95c1.97,0,3.91-0.8,5.3-2.2c1.4-1.39,2.2-3.32,2.2-5.3c0-1.971-0.8-3.91-2.2-5.3c-1.39-1.4-3.33-2.2-5.3-2.2 c-1.98,0-3.91,0.8-5.3,2.2c-1.4,1.39-2.2,3.329-2.2,5.3c0,1.979,0.8,3.91,2.2,5.3C115.59,94.2,117.52,95,119.5,95z"/>
    <path d="M87.5,95c1.98,0,3.91-0.8,5.3-2.2c1.4-1.39,2.2-3.32,2.2-5.3c0-1.971-0.8-3.91-2.2-5.3c-1.39-1.4-3.32-2.2-5.3-2.2 c-1.97,0-3.91,0.8-5.3,2.2c-1.4,1.39-2.2,3.329-2.2,5.3c0,1.979,0.8,3.91,2.2,5.3C83.59,94.2,85.53,95,87.5,95z"/>
  </g>
  <g/>
  <g/>
  <g/>
  <g/>
  <g/>
  <g/>
  <g/>
  <g/>
  <g/>
  <g/>
  <g/>
  <g/>
  <g/>
  <g/>
  <g/>
</svg>