<svg id="Layer_5" enable-background="new 0 0 62 62" height="512" viewBox="0 0 62 62" width="512" xmlns="http://www.w3.org/2000/svg"><g><path d="m48 44h-2v-10h-10v-2h18c4.411 0 8-3.589 8-8 0-4.072-3.06-7.436-7-7.931v-.069c0-8.822-7.178-16-16-16-5.409 0-10.458 2.765-13.401 7.275-1.747-.837-3.664-1.275-5.599-1.275-6.09 0-11.281 4.169-12.644 10.025-4.111.329-7.356 3.781-7.356 7.975 0 3.659 2.526 6.842 6 7.742v3.258c0 1.302.839 2.402 2 2.816v2.369c-1.161.413-2 1.513-2 2.815v4c0 1.302.839 2.402 2 2.816v2.369c-1.161.413-2 1.513-2 2.815v4c0 1.654 1.346 3 3 3h24c1.654 0 3-1.346 3-3v-3h10v-10h2v10h14v-22h-14zm-16-10v10h-2v-10h-4v-4h7c.551 0 1 .448 1 1v3zm-16 16v2h-6v-2zm2-16v-4h6v4zm-2 2h-7c-.551 0-1-.448-1-1v-4c0-.552.449-1 1-1h7zm0 2v2h-6v-2zm2 18h6v4h-6zm0-2v-18h10v18zm-16-30c0-3.308 2.689-5.998 6.021-5.998h.004l.998.021.142-.849c.89-5.316 5.446-9.174 10.835-9.174 1.91 0 3.8.506 5.466 1.464l.871.5.497-.872c2.489-4.375 7.151-7.092 12.166-7.092 7.72 0 14 6.28 14 14v.069c-3.94.495-7 3.859-7 7.931h2c0-3.309 2.691-6 6-6s6 2.691 6 6-2.691 6-6 6h-18.184c-.414-1.161-1.514-2-2.816-2h-24c-1.201 0-2.232.714-2.711 1.736-2.494-.747-4.289-3.067-4.289-5.736zm6 19c0-.552.449-1 1-1h7v6h-7c-.551 0-1-.448-1-1zm0 16v-4c0-.552.449-1 1-1h7v6h-7c-.551 0-1-.448-1-1zm26 0c0 .552-.449 1-1 1h-7v-4h4v-10h2v10h2zm10-5h-10v-18h10zm6-18h10v18h-10z"/><path d="m20 38h6v2h-6z"/><path d="m20 42h6v2h-6z"/><path d="m20 46h6v2h-6z"/><path d="m36 38h6v2h-6z"/><path d="m36 42h6v2h-6z"/><path d="m36 46h6v2h-6z"/><path d="m52 38h6v2h-6z"/><path d="m52 42h6v2h-6z"/><path d="m52 46h6v2h-6z"/><path d="m20 50h6v2h-6z"/><path d="m36 50h6v2h-6z"/><path d="m52 50h6v2h-6z"/><path d="m39 6v-2c-4.531 0-8.627 2.508-10.691 6.545l1.781.91c1.72-3.365 5.134-5.455 8.91-5.455z"/><path d="m20 12c1.23 0 2.441.323 3.5.936l1.001-1.73c-1.363-.789-2.919-1.206-4.501-1.206-3.203 0-6.19 1.724-7.795 4.499l1.731 1.002c1.249-2.159 3.572-3.501 6.064-3.501z"/><path d="m20 21c0 1.654 1.346 3 3 3s3-1.346 3-3-1.346-3-3-3-3 1.346-3 3zm4 0c0 .552-.449 1-1 1s-1-.448-1-1 .449-1 1-1 1 .448 1 1z"/><path d="m31 24c1.654 0 3-1.346 3-3s-1.346-3-3-3-3 1.346-3 3 1.346 3 3 3zm0-4c.551 0 1 .448 1 1s-.449 1-1 1-1-.448-1-1 .449-1 1-1z"/><path d="m36 21c0 1.654 1.346 3 3 3s3-1.346 3-3-1.346-3-3-3-3 1.346-3 3zm4 0c0 .552-.449 1-1 1s-1-.448-1-1 .449-1 1-1 1 .448 1 1z"/></g></svg>