<svg id="Capa_1" enable-background="new 0 0 512 512" height="512" viewBox="0 0 512 512" width="512" xmlns="http://www.w3.org/2000/svg"><g><path d="m179.833 69.697c0 13.946 11.346 25.292 25.292 25.292 13.945 0 25.291-11.346 25.291-25.292 0-13.945-11.346-25.291-25.291-25.291-13.946 0-25.292 11.346-25.292 25.291zm35.582 0c0 5.675-4.617 10.292-10.291 10.292-5.675 0-10.292-4.617-10.292-10.292s4.617-10.291 10.292-10.291 10.291 4.616 10.291 10.291z"/><path d="m108.418 69.697c0 13.946 11.346 25.292 25.292 25.292 13.945 0 25.291-11.346 25.291-25.292 0-13.945-11.346-25.291-25.291-25.291-13.946 0-25.292 11.346-25.292 25.291zm35.583 0c0 5.675-4.617 10.292-10.291 10.292-5.675 0-10.292-4.617-10.292-10.292s4.617-10.291 10.292-10.291c5.674 0 10.291 4.616 10.291 10.291z"/><path d="m37.003 69.697c0 13.946 11.346 25.292 25.291 25.292s25.291-11.346 25.291-25.292c0-13.945-11.346-25.291-25.291-25.291s-25.291 11.346-25.291 25.291zm35.582 0c0 5.675-4.617 10.292-10.291 10.292s-10.291-4.617-10.291-10.292 4.617-10.291 10.291-10.291 10.291 4.616 10.291 10.291z"/><path d="m489.5 8.606h-467c-12.407 0-22.5 10.093-22.5 22.499v291.272c0 4.142 3.358 7.5 7.5 7.5s7.5-3.358 7.5-7.5v-191.587h280.597c4.142 0 7.5-3.357 7.5-7.5s-3.358-7.5-7.5-7.5h-280.597v-84.685c0-4.136 3.364-7.5 7.5-7.5h467c4.136 0 7.5 3.364 7.5 7.5v84.685h-168.717c-4.142 0-7.5 3.357-7.5 7.5s3.358 7.5 7.5 7.5h168.717v350.104c0 4.136-3.364 7.5-7.5 7.5h-467c-4.136 0-7.5-3.364-7.5-7.5v-125.83c0-4.143-3.358-7.5-7.5-7.5s-7.5 3.357-7.5 7.5v125.831c0 12.406 10.093 22.5 22.5 22.5h467c12.407 0 22.5-10.094 22.5-22.5v-449.79c0-12.406-10.093-22.499-22.5-22.499z"/><path d="m48.461 347.467c0 9.649 7.851 17.5 17.5 17.5h150.039c9.649 0 17.5-7.851 17.5-17.5v-45.75c0-9.649-7.851-17.5-17.5-17.5h-150.039c-9.649 0-17.5 7.851-17.5 17.5zm15-45.75c0-1.379 1.122-2.5 2.5-2.5h150.039c1.378 0 2.5 1.121 2.5 2.5v45.75c0 1.379-1.122 2.5-2.5 2.5h-150.039c-1.378 0-2.5-1.121-2.5-2.5z"/><path d="m463.539 301.717c0-9.649-7.851-17.5-17.5-17.5h-150.039c-9.649 0-17.5 7.851-17.5 17.5v45.75c0 9.649 7.851 17.5 17.5 17.5h150.039c9.649 0 17.5-7.851 17.5-17.5zm-15 45.75c0 1.379-1.122 2.5-2.5 2.5h-150.039c-1.378 0-2.5-1.121-2.5-2.5v-45.75c0-1.379 1.122-2.5 2.5-2.5h150.039c1.378 0 2.5 1.121 2.5 2.5z"/><path d="m48.461 455.177c0 9.649 7.851 17.5 17.5 17.5h150.039c9.649 0 17.5-7.851 17.5-17.5v-45.749c0-9.649-7.851-17.5-17.5-17.5h-150.039c-9.649 0-17.5 7.851-17.5 17.5zm15-45.749c0-1.379 1.122-2.5 2.5-2.5h150.039c1.378 0 2.5 1.121 2.5 2.5v45.749c0 1.379-1.122 2.5-2.5 2.5h-150.039c-1.378 0-2.5-1.121-2.5-2.5z"/><path d="m446.039 391.928h-150.039c-9.649 0-17.5 7.851-17.5 17.5v45.749c0 9.649 7.851 17.5 17.5 17.5h150.039c9.649 0 17.5-7.851 17.5-17.5v-45.749c0-9.65-7.85-17.5-17.5-17.5zm2.5 63.249c0 1.379-1.122 2.5-2.5 2.5h-150.039c-1.378 0-2.5-1.121-2.5-2.5v-45.749c0-1.379 1.122-2.5 2.5-2.5h150.039c1.378 0 2.5 1.121 2.5 2.5z"/><path d="m463.539 164.007c0-9.649-7.851-17.5-17.5-17.5h-380.078c-9.649 0-17.5 7.851-17.5 17.5v75.749c0 9.649 7.851 17.5 17.5 17.5h56.801c4.142 0 7.5-3.357 7.5-7.5s-3.358-7.5-7.5-7.5h-56.801c-1.378 0-2.5-1.121-2.5-2.5v-75.749c0-1.379 1.122-2.5 2.5-2.5h380.078c1.378 0 2.5 1.121 2.5 2.5v75.749c0 1.379-1.122 2.5-2.5 2.5h-290.591c-4.142 0-7.5 3.357-7.5 7.5s3.358 7.5 7.5 7.5h290.591c9.649 0 17.5-7.851 17.5-17.5z"/></g></svg>